# xmcd
#
# Track frame offsets: 
#        150
#        19812
#        46260
#
# Disc length: 873 seconds
#
# Revision: 0
# Processed by: cddbd v1.5.2PL0 Copyright (c) Steve Scherf et al.
# Submitted via: ExactAudioCopy v0.99pb4
#
DISCID=1b036703
DTITLE=The Alkaholiks - All Night
DYEAR=1997
DGENRE=Rap
TTITLE0=All Night (Clean Radio Edit)
TTITLE1=All Night (Instrumental)
TTITLE2=All Night (Alkappella)
EXTD=
EXTT0=
EXTT1=
EXTT2=
PLAYORDER=
